<svg width="128" height="93" viewBox="0 0 128 93" fill="none" xmlns="http://www.w3.org/2000/svg">
<g id="dots">
<circle id="Ellipse 1" cx="4" cy="4" r="4" fill="#F3F3FA"/>
<circle id="Ellipse 12" cx="4" cy="20" r="4" fill="#F3F3FA"/>
<circle id="Ellipse 22" cx="4" cy="36" r="4" fill="#F3F3FA"/>
<circle id="Ellipse 32" cx="4" cy="52" r="4" fill="#F3F3FA"/>
<circle id="Ellipse 42" cx="4" cy="68" r="4" fill="#F3F3FA"/>
<circle id="Ellipse 52" cx="4" cy="84" r="4" fill="#F3F3FA"/>
<circle id="Ellipse 7" cx="101" cy="4" r="4" fill="#F3F3FA"/>
<circle id="Ellipse 13" cx="101" cy="20" r="4" fill="#F3F3FA"/>
<circle id="Ellipse 23" cx="101" cy="36" r="4" fill="#F3F3FA"/>
<circle id="Ellipse 33" cx="101" cy="52" r="4" fill="#F3F3FA"/>
<circle id="Ellipse 43" cx="101" cy="68" r="4" fill="#F3F3FA"/>
<circle id="Ellipse 53" cx="101" cy="84" r="4" fill="#F3F3FA"/>
<circle id="Ellipse 4" cx="53" cy="4" r="4" fill="#F3F3FA"/>
<circle id="Ellipse 14" cx="53" cy="20" r="4" fill="#F3F3FA"/>
<circle id="Ellipse 24" cx="53" cy="36" r="4" fill="#F3F3FA"/>
<circle id="Ellipse 34" cx="53" cy="52" r="4" fill="#F3F3FA"/>
<circle id="Ellipse 44" cx="53" cy="68" r="4" fill="#F3F3FA"/>
<circle id="Ellipse 54" cx="53" cy="84" r="4" fill="#F3F3FA"/>
<circle id="Ellipse 2" cx="20" cy="4" r="4" fill="#F3F3FA"/>
<circle id="Ellipse 16" cx="20" cy="20" r="4" fill="#F3F3FA"/>
<circle id="Ellipse 26" cx="20" cy="36" r="4" fill="#F3F3FA"/>
<circle id="Ellipse 36" cx="20" cy="52" r="4" fill="#F3F3FA"/>
<circle id="Ellipse 46" cx="20" cy="68" r="4" fill="#F3F3FA"/>
<circle id="Ellipse 56" cx="20" cy="84" r="4" fill="#F3F3FA"/>
<circle id="Ellipse 9" cx="117" cy="4" r="4" fill="#F3F3FA"/>
<circle id="Ellipse 17" cx="117" cy="20" r="4" fill="#F3F3FA"/>
<circle id="Ellipse 27" cx="117" cy="36" r="4" fill="#F3F3FA"/>
<circle id="Ellipse 37" cx="117" cy="52" r="4" fill="#F3F3FA"/>
<circle id="Ellipse 47" cx="117" cy="68" r="4" fill="#F3F3FA"/>
<circle id="Ellipse 57" cx="117" cy="84" r="4" fill="#F3F3FA"/>
<circle id="Ellipse 5" cx="69" cy="4" r="4" fill="#F3F3FA"/>
<circle id="Ellipse 18" cx="69" cy="20" r="4" fill="#F3F3FA"/>
<circle id="Ellipse 28" cx="69" cy="36" r="4" fill="#F3F3FA"/>
<circle id="Ellipse 38" cx="69" cy="52" r="4" fill="#F3F3FA"/>
<circle id="Ellipse 48" cx="69" cy="68" r="4" fill="#F3F3FA"/>
<circle id="Ellipse 58" cx="69" cy="84" r="4" fill="#F3F3FA"/>
<circle id="Ellipse 3" cx="36" cy="4" r="4" fill="#F3F3FA"/>
<circle id="Ellipse 19" cx="36" cy="20" r="4" fill="#F3F3FA"/>
<circle id="Ellipse 29" cx="36" cy="36" r="4" fill="#F3F3FA"/>
<circle id="Ellipse 39" cx="36" cy="52" r="4" fill="#F3F3FA"/>
<circle id="Ellipse 49" cx="36" cy="68" r="4" fill="#F3F3FA"/>
<circle id="Ellipse 59" cx="36" cy="84" r="4" fill="#F3F3FA"/>
<circle id="Ellipse 6" cx="85" cy="4" r="4" fill="#F3F3FA"/>
<circle id="Ellipse 21" cx="85" cy="20" r="4" fill="#F3F3FA"/>
<circle id="Ellipse 31" cx="85" cy="36" r="4" fill="#F3F3FA"/>
<circle id="Ellipse 41" cx="85" cy="52" r="4" fill="#F3F3FA"/>
<circle id="Ellipse 51" cx="85" cy="68" r="4" fill="#F3F3FA"/>
<circle id="Ellipse 61" cx="85" cy="84" r="4" fill="#F3F3FA"/>
</g>
</svg>
