<svg xmlns="http://www.w3.org/2000/svg" version="1.1" width="1000" height="275" viewBox="0 0 1000 275"><g transform="matrix(1,0,0,1,-0.6060606060606233,-0.6027353979620784)"><svg viewBox="0 0 396 109" data-background-color="#ffffff" preserveAspectRatio="xMidYMid meet" height="275" width="1000" xmlns="http://www.w3.org/2000/svg" ><g id="tight-bounds" transform="matrix(1,0,0,1,0.2400000000000091,0.23890239410133063)"><svg viewBox="0 0 395.52 108.52219521179737" height="108.52219521179737" width="395.52"><g><svg viewBox="0 0 570.3867577768392 156.5018787259363" height="108.52219521179737" width="395.52"><g transform="matrix(1,0,0,1,174.8667577768392,21.629420287014355)"><svg viewBox="0 0 395.52 113.2430381519076" height="113.2430381519076" width="395.52"><g id="textblocktransform"><svg viewBox="0 0 395.52 113.2430381519076" height="113.2430381519076" width="395.52" id="textblock"><g><svg viewBox="0 0 395.52 113.2430381519076" height="113.2430381519076" width="395.52"><g transform="matrix(1,0,0,1,0,0)"><svg width="395.52" viewBox="3.05 -40.5 142.82999999999998 40.9" height="113.2430381519076" data-palette-color="#233565"><path d="M8.4 0L3.05 0 3.05-28.9 8.4-28.9 8.4 0ZM8.4-33.2L3.05-33.2 3.05-38.8 8.4-38.8 8.4-33.2ZM22.3 0L17.5 0 12.85-28.9 17.25-28.9 20.25-7.6 24.1-28.9 28.2-28.9 32.05-7.7 35.05-28.9 39.45-28.9 34.65 0 30.15 0 26.2-20.4 22.3 0ZM51.55 0.4L51.55 0.4Q48.15 0.4 46.3-0.93 44.45-2.25 43.72-4.83 43-7.4 43-11.15L43-11.15 43-17.75Q43-21.6 43.75-24.15 44.5-26.7 46.37-28 48.25-29.3 51.55-29.3L51.55-29.3Q55.2-29.3 56.92-27.8 58.65-26.3 59.2-23.48 59.75-20.65 59.75-16.7L59.75-16.7 59.75-14.35 48.35-14.35 48.35-8.55Q48.35-6.8 48.67-5.7 49-4.6 49.72-4.08 50.45-3.55 51.6-3.55L51.6-3.55Q52.8-3.55 53.42-4.13 54.05-4.7 54.27-5.78 54.5-6.85 54.5-8.3L54.5-8.3 54.5-10.05 59.7-10.05 59.7-8.95Q59.7-4.6 57.85-2.1 56 0.4 51.55 0.4ZM48.35-18.8L48.35-17.25 54.5-17.25 54.5-19.85Q54.5-21.65 54.3-22.88 54.1-24.1 53.47-24.73 52.85-25.35 51.5-25.35L51.5-25.35Q50.2-25.35 49.52-24.75 48.85-24.15 48.6-22.73 48.35-21.3 48.35-18.8L48.35-18.8ZM74.94 0.4L74.94 0.4Q73.39 0.4 72.17-0.38 70.94-1.15 70.04-2.1L70.04-2.1 70.04 0 64.69 0 64.69-40.5 70.04-40.5 70.04-26.6Q70.99-27.7 72.32-28.5 73.64-29.3 75.49-29.3L75.49-29.3Q77.74-29.3 79.07-28.13 80.39-26.95 81.04-25.18 81.69-23.4 81.89-21.58 82.09-19.75 82.09-18.45L82.09-18.45 82.09-11.45Q82.09-8.4 81.49-5.68 80.89-2.95 79.34-1.28 77.79 0.4 74.94 0.4ZM73.84-3.8L73.84-3.8Q75.24-3.8 75.84-4.83 76.44-5.85 76.59-7.6 76.74-9.35 76.74-11.45L76.74-11.45 76.74-18.45Q76.74-20.25 76.54-21.78 76.34-23.3 75.69-24.2 75.04-25.1 73.64-25.1L73.64-25.1Q72.59-25.1 71.67-24.65 70.74-24.2 70.04-23.65L70.04-23.65 70.04-5.1Q70.74-4.55 71.72-4.17 72.69-3.8 73.84-3.8ZM93.64 0.4L93.64 0.4Q89.99 0.4 88.19-2.27 86.39-4.95 86.39-11.35L86.39-11.35 86.39-16.95Q86.39-20.25 86.94-23.08 87.49-25.9 89.02-27.6 90.54-29.3 93.49-29.3L93.49-29.3Q94.94-29.3 96.14-28.65 97.34-28 98.29-27.05L98.29-27.05 98.29-40.5 103.64-40.5 103.64 0 98.29 0 98.29-1.85Q97.34-0.85 96.22-0.23 95.09 0.4 93.64 0.4ZM94.99-3.8L94.99-3.8Q95.74-3.8 96.59-4.08 97.44-4.35 98.29-4.9L98.29-4.9 98.29-23.85Q97.59-24.35 96.74-24.73 95.89-25.1 94.89-25.1L94.89-25.1Q93.04-25.1 92.39-23.33 91.74-21.55 91.74-19.05L91.74-19.05 91.74-10.9Q91.74-8.9 91.97-7.28 92.19-5.65 92.89-4.73 93.59-3.8 94.99-3.8ZM117.04 0.4L117.04 0.4Q113.64 0.4 111.79-0.93 109.94-2.25 109.21-4.83 108.49-7.4 108.49-11.15L108.49-11.15 108.49-17.75Q108.49-21.6 109.24-24.15 109.99-26.7 111.86-28 113.74-29.3 117.04-29.3L117.04-29.3Q120.69-29.3 122.41-27.8 124.14-26.3 124.69-23.48 125.24-20.65 125.24-16.7L125.24-16.7 125.24-14.35 113.84-14.35 113.84-8.55Q113.84-6.8 114.16-5.7 114.49-4.6 115.21-4.08 115.94-3.55 117.09-3.55L117.09-3.55Q118.29-3.55 118.91-4.13 119.54-4.7 119.76-5.78 119.99-6.85 119.99-8.3L119.99-8.3 119.99-10.05 125.19-10.05 125.19-8.95Q125.19-4.6 123.34-2.1 121.49 0.4 117.04 0.4ZM113.84-18.8L113.84-17.25 119.99-17.25 119.99-19.85Q119.99-21.65 119.79-22.88 119.59-24.1 118.96-24.73 118.34-25.35 116.99-25.35L116.99-25.35Q115.69-25.35 115.01-24.75 114.34-24.15 114.09-22.73 113.84-21.3 113.84-18.8L113.84-18.8ZM140.38 0L133.84 0 128.13-28.9 133.53-28.9 137.09-5.65 140.69-28.9 145.88-28.9 140.38 0Z" opacity="1" transform="matrix(1,0,0,1,0,0)" fill="#233565" class="wordmark-text-0" data-fill-palette-color="primary" id="text-0"></path></svg></g></svg></g></svg></g></svg></g><g><svg viewBox="0 0 148.13279430208945 156.5018787259363" height="156.5018787259363" width="148.13279430208945"><g><svg xmlns="http://www.w3.org/2000/svg"  version="1.1" x="0" y="0" viewBox="5.6999999999999975 3.2 88.50000000000001 93.50000000000001" enable-background="new 0 0 100 100" xml:space="preserve" height="156.5018787259363" width="148.13279430208945" class="icon-icon-0" data-fill-palette-color="accent" id="icon-0"><path d="M83.5 3.2c-11.2 0-22.3 0-33.5 0 0 0 0 0 0 0-11.2 0-22.5 0-33.7 0-6 0-10.6 4.5-10.6 10.4 0 18.6 0 37.1 0 55.7 0 1.1 0.2 2.2 0.5 3.2 1.3 4.4 5.2 7.3 9.8 7.3 2.6 0 5.2 0 7.8 0 1.4 3.1 3.4 6 5.9 8.5 5.4 5.4 12.6 8.4 20.3 8.4s14.9-3 20.3-8.4c2.5-2.5 4.5-5.4 5.9-8.5 2.4 0 4.8 0 7.2 0 1.7 0 3.4-0.2 4.9-1 3.9-2 5.9-5.2 5.9-9.6 0-18.4 0-36.9 0-55.3C94.2 7.7 89.8 3.2 83.5 3.2zM82.5 8.6c1.9 0 3.4 1.5 3.4 3.4s-1.5 3.4-3.4 3.4c-1.9 0-3.4-1.5-3.4-3.4S80.6 8.6 82.5 8.6zM70.7 8.6c1.9 0 3.4 1.5 3.4 3.4s-1.5 3.4-3.4 3.4c-1.9 0-3.4-1.5-3.4-3.4S68.9 8.6 70.7 8.6zM59 8.6c1.9 0 3.4 1.5 3.4 3.4s-1.5 3.4-3.4 3.4c-1.9 0-3.4-1.5-3.4-3.4S57.1 8.6 59 8.6zM27 68.1c0-2 0.3-4.1 0.8-6h8.4c-0.3 2.1-0.4 4.2-0.4 6.3 0 1.9 0.1 3.8 0.3 5.7-2.8 0-5.6 0-8.3 0C27.3 72.1 27 70.1 27 68.1zM41.5 68.4c0-2.1 0.2-4.2 0.5-6.3h16c0.3 1.9 0.4 3.8 0.4 5.7 0 2.1-0.2 4.2-0.5 6.3-5.4 0-10.7 0-16.1 0C41.6 72.2 41.5 70.2 41.5 68.4zM43.2 56.3c1.2-4 2.9-7.7 5.2-11.2 1.1-0.1 2.2-0.1 3.3 0 2.2 3.5 3.9 7.2 5 11.2H43.2zM59.4 47.1c4.3 1.9 8 5.2 10.4 9.3h-7.1C61.9 53.1 60.8 50 59.4 47.1zM63.7 62h8.5c0.5 2 0.8 4 0.8 6 0 2-0.3 4-0.8 6-2.8 0-5.7 0-8.5 0 0.3-2.1 0.4-4.2 0.4-6.3C64.1 65.8 64 63.9 63.7 62zM37.3 56.3h-7.1c2.5-4.1 6.2-7.4 10.6-9.3C39.3 50 38.1 53.1 37.3 56.3zM30.3 79.8c0.2 0 0.5 0 0.7 0 2.1 0 4.1 0 6.2 0 0.8 3.2 1.9 6.2 3.3 9.1C36.2 87 32.6 83.8 30.3 79.8zM48.1 91c-2.2-3.5-3.9-7.2-5-11.1 4.5 0 9 0 13.6 0-1.2 4-2.9 7.7-5.2 11.2C50.2 91.1 49.2 91.1 48.1 91zM59 89.2c1.5-3 2.7-6.1 3.5-9.4 2.4 0 4.8 0 7.2 0C67.2 84 63.5 87.3 59 89.2zM88.4 21.9c0 15.8 0 31.6 0 47.4 0 2.9-1.9 4.8-4.8 4.8-1.8 0-3.7 0-5.5 0 0.4-1.9 0.6-3.9 0.6-6 0-7.7-3-14.9-8.4-20.3-5.4-5.4-12.6-8.4-20.3-8.4s-14.9 3-20.3 8.4c-5.4 5.4-8.4 12.6-8.4 20.3 0 2 0.2 4 0.6 6-1.8 0-3.6 0-5.5 0-3 0-4.8-1.8-4.8-4.8 0-15.8 0-31.6 0-47.5 0-0.3 0-0.5 0-0.9 25.6 0 51.1 0 76.7 0C88.4 21.2 88.4 21.6 88.4 21.9z" fill="#8bd8bc" data-fill-palette-color="accent"></path></svg></g></svg></g></svg></g><defs></defs></svg><rect width="395.52" height="108.52219521179737" fill="none" stroke="none" visibility="hidden"></rect></g></svg></g></svg>